<svg xmlns="http://www.w3.org/2000/svg" data-name="Layer" viewBox="0 0 488.4 488.4"><circle cx="244.2" cy="244.2" r="244.2" fill="#011d33"/><path fill="#168dd6" d="M17.2 166.2c1.5 2.4 2.5 3.8 3.3 5.3 6 9.7 12.8 19 17.6 29.3 6.3 13.5 11 27.7 16.1 41.7A156 156 0 0 0 96 306.1c.4.4 1 .6 2.1 1.3-.6-5-1.8-9.3-1.6-13.6.5-9.1 1.9-18.2 2.6-27.3.3-3.8 3-7.2 1-11.3-6.3-13.1-14.4-25-24.7-35.2-9.8-9.5-20.3-18.4-30.5-27.5-.8-.8-1.3-1.8-2.4-3.3 3.1.2 5.1.2 7 .6 19 4.3 35.8 12.7 50 26a105 105 0 0 1 23.3 34.8c1 2 1.2 4.4 1.1 6.5-.2 3.3-1 6.6-1.6 10a115.1 115.1 0 0 0 32.8 104 98.6 98.6 0 0 0 39.3 24.1c21 6.9 42.3 9.7 64.3 7.4 9-.9 18-2 26.8-3.8a99 99 0 0 0 50.6-27 108 108 0 0 0 25.9-39.6 131 131 0 0 0 7.8-30.8 106 106 0 0 0-2.5-38.6c-1-3.4-1.6-7.6-.3-10.6a98.3 98.3 0 0 1 65.6-60.3c4.4-1.4 9-2.1 13.4-3.1l.5 1c-.5.7-.8 1.6-1.5 2.2-6.8 6.1-13.4 12.3-20.4 18.1A132.5 132.5 0 0 0 392 251a18.9 18.9 0 0 0-1.5 13.2c1.9 8.9 2.8 18 3.4 27 .3 5.2-1 10.5-1.6 16 .9-.4 1.7-.6 2.2-1.1 6.4-7 13.2-13.6 19-21 12-15.4 19.5-33.1 25.6-51.5 5.5-16.4 11-32.7 20.6-47.4l12.8-19.5c-1.3-.4-2.4-.8-3.6-1-10.6-2-21-.7-31.4 1.9a192 192 0 0 0-59.6 24.6c-4 2.6-8.3 5.4-11.2 9.1-3.5 4.7-7.2 6.3-12.2 3.1l-5-3.2a38.8 38.8 0 0 1-19.4 19.2c-21 11.4-44 16.2-67.5 17.8-14.6 1-29.4-.3-44-1.3a160.4 160.4 0 0 1-47.3-11.4c-12.7-5.1-25.7-10.6-30.6-25.5l-4.7 5c-2.9 2.7-4.4 2.7-7.3 0-2.3-2-4.6-4.1-7-6A173 173 0 0 0 73 173.4c-15-5.3-30.4-9.4-46.6-8.5-2.8.1-5.6.8-9.2 1.3ZM322 187.6c5.4-11.2 4.2-43.6-4.5-55.2-5.8 2.7-11.6 5.5-17.5 8.1-2.1 1-2.9 2.3-2.8 4.6.4 8.2.6 16.4.8 24.6 0 2.7-1.1 6 .1 7.8 1.3 1.9 4.8 2.1 7.3 3.2l16.7 7Zm-154.6-.2c8.1-3 15.5-5.8 22.9-8.8.9-.3 2-1.9 2-3 0-3.2-.7-6.6-.6-10 0-6.8.3-13.6.7-20.4.1-2.6-.9-3.9-3.1-4.8-5-2.1-10-4.4-15-6.7-2.2-1-3.5-.8-4.5 1.8a83.7 83.7 0 0 0-5.2 36.2c.4 5.4 1.9 10.6 2.8 15.7Zm85.5-104.8-.5 1.1-.1 46.8c0 2.7 1.5 3.2 3.6 2.9l19.8-3c3.3-.4 4.3-2.3 3.5-5.1-1.9-7.2-3.3-14.6-6.1-21.4a38.4 38.4 0 0 0-20.2-21.3Zm-43 46.7c1.6.4 3 1 4.5 1.1 6.2.9 12.5 1.4 18.7 2.6 3.3.7 4.3.1 4.3-3.2V85.6c0-1-.3-1.8-.5-3.3-19.2 10.2-24 27.9-27.1 47Zm-1.7 61.9c2.6 9.8 4.8 18.9 7.4 27.9.3 1.3 1.6 3.2 2.7 3.4 5.2.8 10.6 1.2 15.8 1.7 2.5.2 3.3-.9 3.3-3.3v-29.5c0-2.4-.8-3.5-3.2-3.3-4.9.3-9.7.3-14.5.9-3.5.3-7 1.3-11.5 2.2Zm72.2-.7-24.3-3.1c-2.6-.4-4 .6-3.8 3.5.3 4 .6 8.1.7 12.2v17.6c0 2.6.7 3.8 3.4 3.5 5-.6 9.9-.9 14.8-1.6 1-.2 2.4-1.3 2.8-2.3a98 98 0 0 0 6.4-29.8ZM208 146c-1.6 8.8-.6 17.9-.7 26.9 0 .5 1.8 1.4 2.7 1.4 8-.8 16-2 24-2.6 2.4-.2 3.3-.9 3.3-3.3-.2-5-.4-10 0-15 .4-4-1.8-4.8-5-5.1L208 146Zm74.3-.4c-6.2.8-11.2 1.5-16.2 2-3.7.5-7.4.8-11.1 1.1-2.1.2-3 1.3-2.9 3.5.2 5.2.2 10.5 0 15.7 0 2.8 1 3.5 3.8 3.8 7.6.5 15.3 1.2 22.8 2.5 3 .4 3.6-.3 3.6-2.9v-25.7Zm4-51.3c2.7 9.2 5.2 18.5 8 27.7.2.8 1.8 2 2.2 1.8 4.5-1.9 9-4 13.5-6.2a66.9 66.9 0 0 0-23.6-23.3Zm-106.7 23.3c4.5 2.2 9 4.4 13.6 6.3.3.2 1.7-1 2-1.8 1.9-6.5 3.5-13.1 5.5-19.6.8-2.8 2-5.4 3.3-8.5a70 70 0 0 0-24.4 23.6Zm116.8 76.6-4.3 21.7A51.6 51.6 0 0 0 314 203l-17.6-8.8ZM176 203v1.9l21.7 12.4c-1.4-7.3-2.5-13.7-4-20 0-.7-1.7-1.8-2.1-1.6-5.3 2.3-10.4 4.9-15.6 7.3Z"/><path fill="#b8fa5b" d="M17.2 166.2c3.6-.5 6.4-1.2 9.2-1.3 16.2-1 31.5 3.2 46.6 8.5a173 173 0 0 1 48.7 25.5c2.4 1.9 4.7 4 7 6 2.9 2.7 4.4 2.7 7.3 0l4.7-5c5 15 17.9 20.4 30.6 25.5 15.2 6 31 10.2 47.2 11.4 14.7 1 29.5 2.2 44 1.3a162 162 0 0 0 67.6-17.8 38.8 38.8 0 0 0 19.4-19.1c1.7 1 3.4 2 5 3.2 5 3.2 8.7 1.5 12.2-3.2 2.8-3.7 7.1-6.5 11.2-9.1a192 192 0 0 1 59.6-24.6 74 74 0 0 1 31.4-1.9c1.2.2 2.3.6 3.6 1-4.4 6.7-8.7 13-12.8 19.5-9.5 14.7-15.1 31-20.6 47.4-6 18.4-13.6 36.1-25.6 51.5-5.8 7.4-12.6 14-19 21-.5.5-1.3.7-2.2 1.1.6-5.5 1.9-10.8 1.6-16-.6-9-1.5-18.1-3.4-27-1-4.8-.7-9 1.5-13.2 8.1-15.8 19-29.3 32.6-40.8 7-5.8 13.6-12 20.4-18 .6-.6 1-1.5 1.5-2.3l-.5-1c-4.4 1-9 1.7-13.4 3a99.8 99.8 0 0 0-47.7 30 110 110 0 0 0-18 30.4c-1.2 3-.5 7.2.4 10.6a107 107 0 0 1 2.5 38.6 131 131 0 0 1-7.8 30.8 108.3 108.3 0 0 1-26 39.6 99 99 0 0 1-50.5 27c-8.8 1.9-17.8 3-26.8 3.9-22 2.2-43.4-.6-64.3-7.5a99 99 0 0 1-39.3-24A115.1 115.1 0 0 1 122.3 267c.7-3.2 1.4-6.5 1.6-9.9.1-2.1-.2-4.5-1-6.5-5.8-13-13-25-23.4-34.7a105.6 105.6 0 0 0-50-26.1c-1.9-.4-3.9-.4-7-.6 1.1 1.5 1.6 2.5 2.4 3.3 10.2 9.2 20.7 18 30.4 27.5a124 124 0 0 1 24.8 35.2c2 4.2-.7 7.5-1 11.3-.8 9.1-2.1 18.2-2.6 27.3-.2 4.3 1 8.6 1.6 13.6L96 306a156 156 0 0 1-41.8-63.6c-5-14-9.8-28.2-16-41.7-4.8-10.3-11.7-19.6-17.7-29.3-.8-1.5-1.8-3-3.3-5.3Zm225.2 202a55 55 0 0 0 29.7-6.7 34.5 34.5 0 0 0 15-15 14 14 0 0 0-.2-9.6c-1.2-3.2-5-4.2-8-3-2.8 1.1-5 3.6-7.3 5.8a41 41 0 0 1-44 6.3c-5-2.4-9.1-6.6-13.5-10.3a8.5 8.5 0 0 0-9-1.4c-3.2 1.2-4.5 3.8-4.5 7.3 0 5 2.3 8.8 5.5 11.9a50.6 50.6 0 0 0 36.3 14.7Zm-38.1-74.4c1.6-9.9-9.5-19.4-19-19.7-9.5-.2-18.5 10.6-18.7 19.4-.3 9.4 9.2 19.4 19 19.3 8.8-.1 20.1-9.1 18.7-19Zm118.5-.7c1.4-9.4-9.7-18.8-18.6-18.9a20 20 0 0 0-19.4 19.6c0 9.7 7.7 18.9 19 18.8 10 0 19.7-8.2 19-19.5Z"/><path fill="#e7f8f9" d="m322 187.6-16.6-7c-2.5-1-6-1.2-7.3-3-1.2-1.8 0-5.2-.1-7.9-.2-8.2-.4-16.4-.8-24.6 0-2.3.7-3.6 2.8-4.6 5.9-2.6 11.7-5.4 17.5-8.1 8.7 11.6 9.9 44 4.5 55.2Zm-154.6-.2c-1-5-2.4-10.3-2.8-15.7-1-12.4.8-24.5 5.2-36.2 1-2.6 2.3-2.8 4.5-1.8 5 2.3 10 4.6 15 6.7 2.2 1 3.2 2.2 3.1 4.8a468 468 0 0 0-.8 20.5c0 3.3.7 6.7.6 10 0 1-1 2.6-2 3-7.3 3-14.7 5.6-22.8 8.8ZM253 82.6a38.3 38.3 0 0 1 20 21.3c2.8 6.8 4.3 14.2 6.2 21.3.8 3-.2 4.8-3.5 5.3l-19.8 2.9c-2 .3-3.7-.2-3.6-3V83.8c0-.2.3-.4.6-1Zm-43.2 46.7c3.1-19.1 8-36.8 27.1-47 .2 1.5.4 2.4.4 3.3l.1 44.2c0 3.3-1 3.9-4.3 3.2-6.2-1.2-12.5-1.7-18.7-2.6-1.5-.2-2.9-.7-4.6-1.2Zm-1.6 61.9c4.5-1 8-1.9 11.5-2.2 4.8-.6 9.6-.6 14.5-1 2.4 0 3.2 1 3.2 3.4v29.5c0 2.4-.8 3.5-3.3 3.3-5.2-.5-10.6-.9-15.8-1.7-1.1-.2-2.4-2-2.8-3.4-2.5-9-4.7-18.1-7.3-28Zm72.2-.7a98.4 98.4 0 0 1-6.4 29.8c-.4 1-1.8 2.1-2.8 2.3-5 .7-9.9 1-14.8 1.6-2.7.3-3.5-1-3.4-3.5v-17.6c-.1-4-.4-8.1-.7-12.2-.3-3 1.2-3.9 3.8-3.5l24.3 3ZM208 146l24.4 2.4c3.2.2 5.4 1 5 5-.4 5-.2 10 0 15 0 2.5-1 3.1-3.3 3.4-8 .7-16 1.8-24 2.6-.9 0-2.7-1-2.7-1.4.1-9-1-18.2.7-27Zm74.4-.3v25.7c0 2.6-.5 3.4-3.5 2.9-7.6-1.3-15.3-2-23-2.5-2.6-.3-3.7-1-3.7-3.8.2-5.2.2-10.5 0-15.7 0-2.2.8-3.3 2.9-3.5l11-1 16.3-2Zm4.1-51.3a66.9 66.9 0 0 1 23.6 23.3c-4.6 2.2-9 4.3-13.5 6.2-.4.2-2-1-2.3-1.8-2.7-9.2-5.2-18.5-7.8-27.7Zm-106.8 23.3a70 70 0 0 1 24.4-23.6c-1.3 3.1-2.5 5.7-3.3 8.5-2 6.5-3.6 13-5.5 19.6-.3.8-1.7 2-2 1.9-4.6-2-9.1-4.2-13.6-6.4Z"/><path fill="#abcacc" d="m296.5 194.3 17.6 8.8a51.6 51.6 0 0 1-21.9 13l4.3-21.8ZM176 203l15.5-7.4c.4-.2 2 .9 2.2 1.6 1.4 6.3 2.5 12.7 4 20L176 204.8v-1.9Z"/><path fill="#011d33" d="M242.4 368.2a50.7 50.7 0 0 1-36.3-14.7c-3.2-3.1-5.6-7-5.6-11.9 0-3.5 1.4-6.1 4.6-7.4a8.4 8.4 0 0 1 9 1.5c4.4 3.7 8.6 7.9 13.6 10.3 12.8 6 32 5 43.9-6.3 2.2-2.2 4.5-4.7 7.3-5.8 3-1.2 6.8-.2 8 3a14 14 0 0 1 .3 9.5c-3 6.8-8.8 11.3-15 15a55 55 0 0 1-29.8 6.8Zm-38.1-74.4c1.4 9.9-9.9 18.9-18.7 19-9.8.2-19.3-10-19-19.3.2-8.8 9.2-19.6 18.7-19.3 9.5.2 20.7 9.7 19 19.6Zm118.5-.7c.7 11.3-9.1 19.5-19 19.5-11.3 0-19-9-19-18.9 0-10.8 9.4-19.5 19.4-19.4 9 0 20 9.4 18.6 18.8Z"/><path fill="#abcacc" d="M170.7 133.9s-4.8 27.3 18.3 45.2c0 0-10.2 4.5-21.5 8.7 0 0-10-36 3.2-54Zm38.7 61.7s.7 12.6 6.7 27c0 0 7.6 1.7 21.3 2.2v-19.6s-15.2.4-28-9.6Zm43.6 9.6-.3 19s10.2 1.3 21-1.6c0 0 4.5-8.3 6-24.4 0 0-11.7 7.9-26.7 7Zm56.6-22.8s11.8-10.2 9-48.4c0 0 5 8 6.1 22.7 0 0 2.4 19-2.7 31 0 0-13.5-5.6-12.4-5.3Z"/><path fill="#009899" d="M42.5 189.2s.3 4.1 4.1 8c0 0 12 13.9 18.7 25.4 0 0 17.4 20.1 16.8 69 0 0 9 13 16 15.8 0 0-1.3-12.7.9-39.8 0 0 3.7-9.3.7-13.1 0 0-7-25-57.2-65.3Zm404 .6s-6.8 7-9.9 9.8c-8.5 7.5-37.7 30.5-44.7 51.3 0 0-4.8 7.7-.2 19.4 0 0 .7-.6.6 36.8 0 0 6-1.5 15.4-15.2 0 0-.4-26.3 4.2-41.5 0 0 4.5-19.8 22.1-42 0 0 17.9-19.3 12.5-18.6Zm-298.2 174s37.7 54.6 132 36c0 0 48.7-5 73.3-50.2 0 0 20-32.3 16.9-62.2 0 0 .6-16.6-4.2-29.7 0 0 2 43.7-14.7 70.3 0 0-18.6 39.8-55.6 53.6 0 0-35.5 12.9-65.6 10.2 0 0-49-.4-82.1-28ZM366.2 202s-4.9 7-13.9 1c0 0 3.6 18-18.9 26.7 0 0-35.8 19.2-80.7 19.5 0 0-49.6 1.6-88.3-17a79 79 0 0 0 38.7 25.5s29.8 9.5 67.7 4.4c0 0 36.5-4.3 57-13.8 0 0 41.6-14.8 38.4-46.3Z"/><path fill="#e7f8f9" d="M17.2 166.2s21.2-7.2 56.7 7.6c0 0 30.7 9.8 51.2 28v12s-16-15.5-39.7-26.5c0 0-19.6-10.5-68.2-21.1Z"/><path fill="#f7f8f9" d="m140.7 200-5.7 5.8s6.2 19.3 29.4 26.3l-8.2-13.7s-11.5-7.7-15.5-18.5Z"/><path fill="#60f6f8" d="m349.1 200.3 3.2 2.6s4 17.4-19.8 28.2c0 0-28.7 14.2-55 16.1 0 0-31 5.5-62.4-.5 0 0-25.5-2.2-50.7-14.6 0 0-4.7-4.2-8.1-13.7 0 0 31 17.8 71.4 19 0 0 35.8 3.1 64-3.2 0 0 50.6-11 57.5-33.9Z"/><path fill="#e7f8f9" d="M366.2 202s.6 4.2-.5 10c0 0 21.6-17 41.6-25.8 0 0 28.9-13.5 65.2-19.6 0 0-7.2-8.1-51.7 5 0 0-40.3 11.7-54.6 30.4Z"/></svg>